<?xml version="1.0" encoding="utf-8"?>
<!-- Generator: Adobe Illustrator 22.1.0, SVG Export Plug-In . SVG Version: 6.00 Build 0)  -->
<svg version="1.1" id="Layer_1" xmlns="http://www.w3.org/2000/svg" xmlns:xlink="http://www.w3.org/1999/xlink" x="0px" y="0px"
	 viewBox="0 0 512 512" style="enable-background:new 0 0 512 512;" xml:space="preserve">
<style type="text/css">
	.st0{clip-path:url(#SVGID_2_);fill:#00AFFF;}
</style>
<g>
	<g>
		<g>
			<defs>
				<circle id="SVGID_1_" cx="256" cy="256" r="216.5"/>
			</defs>
			<clipPath id="SVGID_2_">
				<use xlink:href="#SVGID_1_"  style="overflow:visible;"/>
			</clipPath>
			<path class="st0" d="M490.2,289.9v-67.8h-59.3c-4.6-23.9-13.9-45.5-27-64.7l42.4-42.4l-48.5-47.8l-42.4,42.4
				c-19.3-13.1-41.6-22.3-64.7-27V21.8h-67.8v60.1c-23.9,4.6-45.5,13.9-64.7,27l-42.4-42.4L67.2,115l42.4,42.4
				c-13.1,19.3-22.3,41.6-27,64.7H21.8v67.8h59.3c4.6,23.9,13.9,46.2,27,65.5L66.5,397l48.5,48.5l41.6-41.6
				c19.3,13.1,41.6,22.3,65.5,27v59.3h67.8v-59.3c23.9-4.6,46.2-13.9,65.5-27l41.6,41.6l48.5-48.5l-42.4-42.4
				c13.1-19.3,22.3-41.6,27-65.5h60.1V289.9z M383.1,256c0,70.1-57,127.1-127.1,127.1s-127.1-57-127.1-127.1s57-127.1,127.1-127.1
				S383.1,185.9,383.1,256z"/>
		</g>
	</g>
</g>
</svg>
