<?xml version="1.0" encoding="utf-8"?>
<!-- Generator: Adobe Illustrator 22.1.0, SVG Export Plug-In . SVG Version: 6.00 Build 0)  -->
<svg version="1.1" id="Layer_1" xmlns="http://www.w3.org/2000/svg" xmlns:xlink="http://www.w3.org/1999/xlink" x="0px" y="0px"
	 viewBox="0 0 512 512" style="enable-background:new 0 0 512 512;" xml:space="preserve">
<style type="text/css">
	.st0{fill:#FFBA0D;}
	.st1{fill:#FFFFFF;}
</style>
<g>
	<path class="st0" d="M258.3,46h-4.1h-0.7c-43.6,0-86.4,14.3-121.8,40.8l40.8,45.6c22.5-15,46.3-25.2,81.7-25.9
		c37.4,0,62.6,10.9,85.8,25.9l40.8-45.6C346.1,60.3,302.5,45.3,258.3,46z"/>
	<path class="st1" d="M401.2,103.2l-40.2,44.9l1.4,1.4c47.6,47.6,57.9,121.8,24.5,180.4l-80.3-76.9l-38.1-88.5v134.8l78.3,75.6l0,0
		c-4.1,2.7-8.2,6.1-12.3,8.2l-2.7,2c-22.5,12.9-47.6,19.7-73.5,19.7l0,0h-4.1c-25.9,0-51.1-6.8-73.5-19.7l-2.7-1.4
		c-4.1-2.7-8.2-5.4-12.3-8.2l76.9-76.2V164.5l-38.1,88.5l-79,76.9c-33.4-58.5-23.1-132.7,23.8-180.4l2-2l-40.2-44.9l-4.8,4.8
		c-81,81.7-80.3,215.1,0,296.1l2.7,2.7c19.1,18.4,40.2,32.7,64.7,42.9l5.4,2l2,2l5.4,2c6.8,2.7,14.3,4.8,21.8,6.1l13.6,2.7l14.3,2
		h2.7h5.4h11.6l4.8-0.7h7.5h4.8h3.4l14.3-2l13.6-2.7c7.5-1.4,15-4.1,21.8-6.1l4.1-1.4l7.5-3.4l0.7-0.7c23.1-9.5,44.9-23.8,63.3-41.5
		l8.2-8.2C487.7,315.6,484.3,182.8,401.2,103.2z"/>
</g>
</svg>
