<?xml version="1.0" encoding="utf-8"?>
<!-- Generator: Adobe Illustrator 22.1.0, SVG Export Plug-In . SVG Version: 6.00 Build 0)  -->
<svg version="1.1" id="Layer_1" xmlns="http://www.w3.org/2000/svg" xmlns:xlink="http://www.w3.org/1999/xlink" x="0px" y="0px"
	 viewBox="0 0 512 512" style="enable-background:new 0 0 512 512;" xml:space="preserve">
<style type="text/css">
	.st0{fill:#3390FF;}
	.st1{fill:#CCE1FF;}
</style>
<g>
	<g>
		<path class="st0" d="M237.6,73.5l-78-30.8h-1.4l-80.8,15c-1.4,0-2.1,1.4-2.1,2.9c0,0.7,0.7,2.1,1.4,2.1
			c9.3,4.3,18.6,8.6,27.9,13.6c15,7.9,42.2,25,47.9,35.1l0,0c2.1,3.6,2.9,7.9,2.9,12.2l0.7,259c0,0,0.7,32.9,77.3,85.1
			c1.4,0.7,5.7,1.4,6.4,0c0,0,0,0,0-0.7V75.7C239,75,239,73.5,237.6,73.5z"/>
		<path class="st0" d="M273.4,73.5l78-30.8h1.4l80.8,15c1.4,0,2.1,1.4,2.1,2.9c0,0.7-0.7,2.1-1.4,2.1c-9.3,4.3-18.6,8.6-27.9,13.6
			c-15,7.9-42.2,25-47.9,35.1l0,0c-2.1,4.3-2.9,8.6-2.9,12.9l-0.7,259c0,0-0.7,32.9-77.3,85.1c-1.4,0.7-5.7,1.4-6.4,0c0,0,0,0,0-0.7
			v-392C272,75,272,73.5,273.4,73.5z"/>
	</g>
	<path class="st1" d="M57.3,181h129.5l17.2,15.7c0.7,0.7,0.7,0.7,1.4,0.7l0,0c0.7,0,1.4,0,1.4-0.7l45.8-50.1
		c0.7-0.7,0.7-1.4,0.7-2.9c-0.7-0.7-1.4-1.4-2.1-1.4H83.1c-7.2-0.7-13.6,1.4-19.3,5c-5,4.3-9.3,11.4-9.3,24.3v6.4
		C54.5,178.8,55.9,180.2,57.3,181C57.3,180.2,57.3,180.2,57.3,181L57.3,181L57.3,181z M487.3,144.5H302.7l-1.4,0.7l-33.6,31.5
		c-0.7,0.7-0.7,2.9,0,3.6c0.7,0.7,1.4,0.7,1.4,0.7h148.1l7.9,10.7c0.7,0.7,2.1,1.4,3.6,0.7l60.1-42.9c0.7-0.7,1.4-2.1,0-3.6
		C488.7,144.5,488,144.5,487.3,144.5L487.3,144.5L487.3,144.5z M425.7,341.2c-5,0.7-10,1.4-15,1.4c-43.6-1.4-79.4-35.1-83-78.7
		c-0.7-5.7-0.7-11.4-0.7-17.2c0-14.3,0.7-29.3,3.6-43.6c0-0.7,0-1.4-0.7-2.1c-0.7-0.7-1.4-0.7-2.1-0.7h-65.8c-0.7,0-2.1,0.7-2.1,1.4
		c-5.7,16.5-8.6,34.3-8.6,52.2c0,14.3,2.1,21.5,7.2,38.6c12.9,39.3,60.1,77.3,98,77.3c57.2,0,71.5-20,72.2-26.5
		C428.6,341.9,427.9,341.2,425.7,341.2L425.7,341.2L425.7,341.2L425.7,341.2z M148.2,202.4l-2.1-0.7H71.7c-1.4,0-2.1,1.4-2.1,2.1
		c0,0.7,0,1.4,0.7,1.4c0,0,100.9,116.6,103,119.5c0,0,0,0.7,0.7,0.7l-0.7,0.7h-59.4c-8.6,0-17.2-2.9-24.3-7.9c-2.9-2.1-5-5-7.2-7.9
		c-0.7-0.7-0.7-0.7-1.4-0.7c-0.7,0-1.4,0-2.1,0.7L23,361.9c-0.7,0.7-0.7,2.9,0,3.6c0.7,0.7,0.7,0.7,1.4,0.7h208.2
		c12.2,0,20-12.9,20.7-25c0-5-1.4-10-4.3-13.6C239.8,318.3,148.2,202.4,148.2,202.4z"/>
</g>
</svg>
